<?xml version="1.0" encoding="UTF-8"?>
<svg xmlns="http://www.w3.org/2000/svg" xmlns:xlink="http://www.w3.org/1999/xlink" width="2626" height="2626" viewBox="0 0 2626 2626">
<path fill-rule="nonzero" fill="rgb(0%, 0%, 0%)" fill-opacity="1" d="M 1147.769531 1.238281 C 1142.859375 2.46875 1103.179688 24.210938 1089.738281 32.820312 C 1075.019531 42.460938 1073.089844 49.03125 1066.691406 110.550781 C 1061.359375 162.640625 1031.921875 440.949219 1018.691406 564.820312 C 1015.269531 597.429688 1003.320312 710.640625 992.019531 816.058594 C 980.921875 921.46875 968.121094 1042.679688 963.640625 1085.339844 C 958.945312 1127.988281 954.464844 1163.679688 953.398438 1164.5 C 952.332031 1165.519531 741.742188 1282.828125 485.28125 1425.160156 C 228.820312 1567.5 16.738281 1685.832031 13.964844 1688.292969 C 2.230469 1698.546875 0.949219 1705.316406 0.949219 1755.355469 C 0.949219 1805.398438 2.441406 1812.371094 13.964844 1822.214844 C 19.085938 1826.519531 1430.050781 2610.367188 1450.539062 2620.417969 C 1471.230469 2630.464844 1429.839844 2651.792969 1984.578125 2343.753906 C 2261.308594 2190.347656 2490.25 2062.371094 2493.449219 2059.5 C 2496.648438 2056.628906 2500.699219 2051.296875 2502.410156 2047.8125 C 2504.550781 2043.300781 2523.320312 1862.207031 2565.78125 1433.78125 L 2625.949219 825.898438 L 2621.890625 816.671875 C 2619.761719 811.539062 2614.429688 804.769531 2610.371094 801.488281 C 2603.328125 796.160156 1196.851562 14.570312 1176.359375 4.519531 C 1166.980469 0.0117188 1157.378906 -1.019531 1147.769531 1.238281 Z M 1162.070312 113.21875 C 1170.601562 118.140625 1479.128906 289.589844 1847.601562 494.070312 C 2216.078125 698.539062 2517.769531 866.089844 2517.988281 866.089844 C 2518.199219 866.300781 2510.730469 937.871094 2501.558594 1025.238281 C 2492.171875 1112.609375 2480.21875 1225.609375 2474.890625 1276.480469 C 2469.558594 1327.128906 2463.371094 1386.199219 2461.019531 1407.730469 C 2458.671875 1429.058594 2447.789062 1533.039062 2436.480469 1638.457031 C 2425.390625 1743.871094 2413.441406 1856.257812 2410.03125 1888.253906 C 2406.820312 1920.042969 2403.628906 1946.703125 2402.980469 1947.113281 C 2402.128906 1947.933594 1036.609375 1190.75 1032.769531 1187.261719 C 1031.699219 1186.238281 1033.839844 1158.140625 1037.679688 1122.25 C 1046.851562 1034.679688 1079.070312 731.351562 1088.03125 646.859375 C 1092.089844 608.5 1103.609375 499.609375 1113.628906 404.851562 C 1123.660156 310.101562 1134.761719 205.921875 1138.171875 173.109375 C 1141.800781 140.5 1144.570312 111.578125 1144.570312 109.121094 C 1144.570312 106.449219 1145 104.398438 1145.429688 104.398438 C 1145.851562 104.398438 1153.320312 108.300781 1162.070312 113.21875 Z M 1116.410156 1277.710938 C 1173.589844 1309.5 1322.089844 1391.941406 1446.480469 1461.058594 C 1570.871094 1530.171875 1802.800781 1658.964844 1961.75 1747.152344 C 2120.710938 1835.339844 2279.878906 1923.734375 2315.5 1943.625 C 2350.929688 1963.316406 2379.730469 1979.925781 2379.089844 1980.335938 C 2378.449219 1980.953125 2173.191406 2095.1875 1922.921875 2234.03125 L 1467.820312 2486.699219 L 1433.679688 2467.832031 C 1414.898438 2457.371094 1107.660156 2286.941406 750.917969 2088.828125 C 394.390625 1890.714844 101.441406 1728.285156 100.160156 1727.875 C 98.882812 1727.257812 99.308594 1726.027344 101.230469 1724.796875 C 109.550781 1719.464844 1009.300781 1220.078125 1010.789062 1220.078125 C 1011.648438 1220.078125 1059.230469 1246.121094 1116.410156 1277.710938 Z M 769.695312 2142.355469 C 1366.25 2473.574219 1460.351562 2525.253906 1467.820312 2525.460938 C 1475.289062 2525.460938 1532.25 2494.285156 1951.941406 2261.308594 C 2213.519531 2115.898438 2428.800781 1996.539062 2430.078125 1996.128906 C 2432 1995.308594 2432.21875 1997.359375 2431.359375 2002.691406 L 2430.078125 2010.28125 L 1948.949219 2277.507812 L 1468.03125 2544.535156 L 1458 2538.996094 C 1452.671875 2536.125 1139.878906 2362.414062 763.078125 2153.226562 L 77.757812 1772.789062 L 77.757812 1766.019531 C 77.757812 1762.535156 78.398438 1759.457031 79.039062 1759.457031 C 79.679688 1759.457031 390.546875 1931.730469 769.695312 2142.355469 Z M 769.695312 2142.355469 "/>
<path fill-rule="nonzero" fill="rgb(0%, 0%, 0%)" fill-opacity="1" d="M 983.484375 1302.929688 C 966.199219 1310.320312 626.3125 1500.230469 621.40625 1505.359375 C 614.152344 1512.738281 613.726562 1520.53125 620.339844 1528.121094 C 622.898438 1531.191406 881.710938 1675.988281 1216.050781 1861.589844 C 1541.21875 2041.863281 1810.050781 2191.167969 1813.890625 2193.011719 C 1817.730469 2194.859375 1822.851562 2196.292969 1825.628906 2196.292969 C 1830.320312 2196.292969 2189.621094 1998.386719 2196.019531 1992.4375 C 2197.730469 1991 2199.441406 1986.078125 2200.078125 1981.566406 C 2200.929688 1975.003906 2200.289062 1972.542969 2196.230469 1968.238281 C 2190.480469 1962.289062 1003.539062 1302.929688 995.21875 1301.289062 C 992.230469 1300.679688 987.109375 1301.289062 983.484375 1302.929688 Z M 1562.121094 1657.117188 C 1875.128906 1830.828125 2133.929688 1974.59375 2137.128906 1976.441406 L 2142.679688 1979.925781 L 1985.648438 2067.089844 C 1899.230469 2115.078125 1826.691406 2154.25 1824.128906 2154.046875 C 1821.789062 2154.046875 1600.949219 2032.429688 1333.398438 1883.742188 C 1065.839844 1735.050781 808.3125 1592.109375 761.160156 1566.058594 C 714.007812 1539.808594 675.386719 1518.070312 675.175781 1517.449219 C 675.175781 1516.21875 988.816406 1341.289062 991.378906 1341.078125 C 992.230469 1341.078125 1248.910156 1483.199219 1562.121094 1657.117188 Z M 1562.121094 1657.117188 "/>
<path fill-rule="nonzero" fill="rgb(0%, 0%, 0%)" fill-opacity="1" d="M 744.945312 1831.035156 C 678.160156 1867.949219 622.261719 1899.738281 620.554688 1901.378906 C 618.847656 1903.019531 616.925781 1907.53125 616.285156 1911.632812 C 615.21875 1917.582031 616.074219 1919.835938 620.980469 1925.167969 C 629.085938 1933.371094 1100.828125 2194.859375 1109.371094 2195.882812 C 1114.699219 2196.5 1137.53125 2184.605469 1235.25 2130.667969 C 1307.371094 2090.878906 1357.511719 2061.757812 1361.988281 2057.449219 C 1367.960938 2051.296875 1368.820312 2049.246094 1367.75 2043.914062 C 1366.890625 2040.222656 1364.121094 2035.300781 1361.558594 2032.839844 C 1359 2030.582031 1249.328125 1968.851562 1118.109375 1896.046875 C 943.15625 1799.039062 877.441406 1763.558594 872.746094 1763.558594 C 868.054688 1763.558594 831.570312 1782.835938 744.945312 1831.035156 Z M 1095.289062 1926.398438 C 1212.851562 1991.820312 1308.21875 2045.964844 1307.371094 2046.785156 C 1302.460938 2051.296875 1111.929688 2155.480469 1109.578125 2154.867188 C 1105.308594 2153.839844 675.175781 1914.710938 675.175781 1913.480469 C 675.386719 1912.863281 719.765625 1887.636719 773.960938 1857.695312 C 860.160156 1809.910156 873.175781 1803.347656 877.015625 1805.398438 C 879.363281 1806.628906 977.722656 1861.179688 1095.289062 1926.398438 Z M 1095.289062 1926.398438 "/>
</svg>
